<mxfile host="Electron" modified="2023-11-18T15:39:27.246Z" agent="Mozilla/5.0 (Windows NT 10.0; Win64; x64) AppleWebKit/537.36 (KHTML, like Gecko) draw.io/22.1.2 Chrome/114.0.5735.289 Electron/25.9.4 Safari/537.36" etag="I5lwF4tu8qDy7K-Jx7vg" version="22.1.2" type="device">
  <diagram name="Page-1" id="5f0bae14-7c28-e335-631c-24af17079c00">
    <mxGraphModel dx="1300" dy="827" grid="1" gridSize="10" guides="1" tooltips="1" connect="1" arrows="1" fold="1" page="1" pageScale="1" pageWidth="1100" pageHeight="850" background="none" math="0" shadow="0">
      <root>
        <mxCell id="0" />
        <mxCell id="1" parent="0" />
        <mxCell id="39150e848f15840c-1" value="&lt;b&gt;Orchestrator&lt;/b&gt;" style="verticalAlign=top;align=left;spacingTop=8;spacingLeft=2;spacingRight=12;shape=cube;size=10;direction=south;fontStyle=4;html=1;rounded=0;shadow=0;comic=0;labelBackgroundColor=none;strokeWidth=1;fontFamily=Verdana;fontSize=12" parent="1" vertex="1">
          <mxGeometry x="113" y="390" width="250" height="195" as="geometry" />
        </mxCell>
        <mxCell id="39150e848f15840c-2" value="&lt;b&gt;&lt;font style=&quot;font-size: 13px;&quot;&gt;Driver&lt;/font&gt;&lt;/b&gt;" style="verticalAlign=top;align=left;spacingTop=8;spacingLeft=2;spacingRight=12;shape=cube;size=10;direction=south;fontStyle=4;html=1;rounded=0;shadow=0;comic=0;labelBackgroundColor=none;strokeWidth=1;fontFamily=Verdana;fontSize=12" parent="1" vertex="1">
          <mxGeometry x="506" y="45" width="280" height="220" as="geometry" />
        </mxCell>
        <mxCell id="39150e848f15840c-3" value="&lt;b&gt;&lt;font style=&quot;font-size: 13px;&quot;&gt;Target&lt;/font&gt;&lt;/b&gt;" style="verticalAlign=top;align=left;spacingTop=8;spacingLeft=2;spacingRight=12;shape=cube;size=10;direction=south;fontStyle=4;html=1;rounded=0;shadow=0;comic=0;labelBackgroundColor=none;strokeWidth=1;fontFamily=Verdana;fontSize=12" parent="1" vertex="1">
          <mxGeometry x="856" y="382.5" width="234" height="202.5" as="geometry" />
        </mxCell>
        <mxCell id="39150e848f15840c-4" value="«interface»&lt;br&gt;&lt;b&gt;ping&lt;/b&gt;" style="html=1;rounded=0;shadow=0;comic=0;labelBackgroundColor=none;strokeWidth=1;fontFamily=Verdana;fontSize=12;align=center;" parent="1" vertex="1">
          <mxGeometry x="866" y="422" width="80" height="40" as="geometry" />
        </mxCell>
        <mxCell id="3N-GQRmi18zG9YWCNRON-10" style="edgeStyle=orthogonalEdgeStyle;rounded=0;orthogonalLoop=1;jettySize=auto;html=1;entryX=0;entryY=0.5;entryDx=0;entryDy=0;" edge="1" parent="1" source="39150e848f15840c-5" target="3N-GQRmi18zG9YWCNRON-8">
          <mxGeometry relative="1" as="geometry" />
        </mxCell>
        <mxCell id="39150e848f15840c-5" value="UI module" style="shape=component;align=left;spacingLeft=36;rounded=0;shadow=0;comic=0;labelBackgroundColor=none;strokeWidth=1;fontFamily=Verdana;fontSize=12;html=1;" parent="1" vertex="1">
          <mxGeometry x="123" y="513" width="110" height="60" as="geometry" />
        </mxCell>
        <mxCell id="39150e848f15840c-6" value="" style="ellipse;whiteSpace=wrap;html=1;rounded=0;shadow=0;comic=0;labelBackgroundColor=none;strokeWidth=1;fontFamily=Verdana;fontSize=12;align=center;" parent="1" vertex="1">
          <mxGeometry x="173" y="477.5" width="20" height="20" as="geometry" />
        </mxCell>
        <mxCell id="3N-GQRmi18zG9YWCNRON-20" style="edgeStyle=orthogonalEdgeStyle;rounded=0;orthogonalLoop=1;jettySize=auto;html=1;exitX=1;exitY=0.25;exitDx=0;exitDy=0;entryX=0;entryY=0.5;entryDx=0;entryDy=0;" edge="1" parent="1" source="39150e848f15840c-7" target="3N-GQRmi18zG9YWCNRON-14">
          <mxGeometry relative="1" as="geometry" />
        </mxCell>
        <mxCell id="3N-GQRmi18zG9YWCNRON-22" style="edgeStyle=orthogonalEdgeStyle;rounded=0;orthogonalLoop=1;jettySize=auto;html=1;exitX=1;exitY=0.75;exitDx=0;exitDy=0;entryX=0;entryY=0.5;entryDx=0;entryDy=0;" edge="1" parent="1" source="39150e848f15840c-7" target="3N-GQRmi18zG9YWCNRON-18">
          <mxGeometry relative="1" as="geometry" />
        </mxCell>
        <mxCell id="39150e848f15840c-7" value="Driver &lt;br&gt;Msg &lt;br&gt;Module" style="shape=component;align=left;spacingLeft=36;rounded=0;shadow=0;comic=0;labelBackgroundColor=none;strokeWidth=1;fontFamily=Verdana;fontSize=12;html=1;" parent="1" vertex="1">
          <mxGeometry x="516" y="132.5" width="100" height="60" as="geometry" />
        </mxCell>
        <mxCell id="39150e848f15840c-10" value="Target &lt;br&gt;Server&lt;br&gt;Module" style="shape=component;align=left;spacingLeft=36;rounded=0;shadow=0;comic=0;labelBackgroundColor=none;strokeWidth=1;fontFamily=Verdana;fontSize=12;html=1;" parent="1" vertex="1">
          <mxGeometry x="914" y="515.5" width="100" height="60" as="geometry" />
        </mxCell>
        <mxCell id="39150e848f15840c-14" style="edgeStyle=elbowEdgeStyle;rounded=0;html=1;labelBackgroundColor=none;startArrow=none;startFill=0;startSize=8;endArrow=none;endFill=0;endSize=16;fontFamily=Verdana;fontSize=12;" parent="1" source="39150e848f15840c-6" target="39150e848f15840c-5" edge="1">
          <mxGeometry relative="1" as="geometry" />
        </mxCell>
        <mxCell id="39150e848f15840c-16" style="edgeStyle=orthogonalEdgeStyle;rounded=0;html=1;dashed=1;labelBackgroundColor=none;startArrow=none;startFill=0;startSize=8;endArrow=open;endFill=0;endSize=16;fontFamily=Verdana;fontSize=12;entryX=0.5;entryY=1;entryDx=0;entryDy=0;exitX=0.25;exitY=0;exitDx=0;exitDy=0;" parent="1" source="39150e848f15840c-10" target="39150e848f15840c-4" edge="1">
          <mxGeometry relative="1" as="geometry">
            <mxPoint x="-14" y="804.5" as="sourcePoint" />
            <Array as="points">
              <mxPoint x="941" y="489.5" />
              <mxPoint x="906" y="489.5" />
            </Array>
          </mxGeometry>
        </mxCell>
        <mxCell id="39150e848f15840c-17" style="edgeStyle=orthogonalEdgeStyle;rounded=0;html=1;labelBackgroundColor=none;startArrow=none;startFill=0;endArrow=classicThin;endFill=1;fontFamily=Verdana;fontSize=12;exitX=1;exitY=0.5;exitDx=0;exitDy=0;entryX=0;entryY=0.3;entryDx=0;entryDy=0;strokeColor=#CC0000;strokeWidth=2;" parent="1" source="3N-GQRmi18zG9YWCNRON-13" target="39150e848f15840c-10" edge="1">
          <mxGeometry relative="1" as="geometry">
            <mxPoint x="946" y="220.0666666666666" as="sourcePoint" />
            <mxPoint x="826" y="325" as="targetPoint" />
          </mxGeometry>
        </mxCell>
        <mxCell id="3N-GQRmi18zG9YWCNRON-2" value="" style="outlineConnect=0;dashed=0;verticalLabelPosition=bottom;verticalAlign=top;align=center;html=1;shape=mxgraph.aws3.queue;fillColor=#006600;gradientColor=none;" vertex="1" parent="1">
          <mxGeometry x="378" y="443" width="60" height="28" as="geometry" />
        </mxCell>
        <mxCell id="3N-GQRmi18zG9YWCNRON-3" value="" style="outlineConnect=0;dashed=0;verticalLabelPosition=bottom;verticalAlign=top;align=center;html=1;shape=mxgraph.aws3.queue;fillColor=#0000FF;gradientColor=none;rotation=-180;" vertex="1" parent="1">
          <mxGeometry x="397" y="473" width="60" height="28" as="geometry" />
        </mxCell>
        <mxCell id="3N-GQRmi18zG9YWCNRON-4" value="Test Engineer" style="shape=umlActor;verticalLabelPosition=bottom;verticalAlign=top;html=1;outlineConnect=0;" vertex="1" parent="1">
          <mxGeometry x="40" y="457.5" width="30" height="60" as="geometry" />
        </mxCell>
        <mxCell id="3N-GQRmi18zG9YWCNRON-5" style="edgeStyle=orthogonalEdgeStyle;rounded=0;orthogonalLoop=1;jettySize=auto;html=1;exitX=0.5;exitY=0.5;exitDx=0;exitDy=0;exitPerimeter=0;entryX=0;entryY=0.5;entryDx=0;entryDy=0;" edge="1" parent="1" source="3N-GQRmi18zG9YWCNRON-4" target="39150e848f15840c-6">
          <mxGeometry relative="1" as="geometry" />
        </mxCell>
        <mxCell id="3N-GQRmi18zG9YWCNRON-11" style="edgeStyle=orthogonalEdgeStyle;rounded=0;orthogonalLoop=1;jettySize=auto;html=1;entryX=0;entryY=0.5;entryDx=0;entryDy=0;entryPerimeter=0;exitX=1;exitY=0.25;exitDx=0;exitDy=0;strokeColor=#336600;strokeWidth=2;" edge="1" parent="1" source="3N-GQRmi18zG9YWCNRON-7" target="3N-GQRmi18zG9YWCNRON-2">
          <mxGeometry relative="1" as="geometry">
            <mxPoint x="376" y="255" as="targetPoint" />
          </mxGeometry>
        </mxCell>
        <mxCell id="3N-GQRmi18zG9YWCNRON-7" value="Orch Msg&amp;nbsp;&lt;br&gt;Module" style="shape=component;align=left;spacingLeft=36;rounded=0;shadow=0;comic=0;labelBackgroundColor=none;strokeWidth=1;fontFamily=Verdana;fontSize=12;html=1;" vertex="1" parent="1">
          <mxGeometry x="219" y="442" width="110" height="60" as="geometry" />
        </mxCell>
        <mxCell id="3N-GQRmi18zG9YWCNRON-8" value="" style="ellipse;whiteSpace=wrap;html=1;rounded=0;shadow=0;comic=0;labelBackgroundColor=none;strokeWidth=1;fontFamily=Verdana;fontSize=12;align=center;" vertex="1" parent="1">
          <mxGeometry x="264" y="533" width="20" height="20" as="geometry" />
        </mxCell>
        <mxCell id="3N-GQRmi18zG9YWCNRON-9" style="edgeStyle=elbowEdgeStyle;rounded=0;html=1;labelBackgroundColor=none;startArrow=none;startFill=0;startSize=8;endArrow=none;endFill=0;endSize=16;fontFamily=Verdana;fontSize=12;exitX=0.5;exitY=0;exitDx=0;exitDy=0;" edge="1" parent="1" source="3N-GQRmi18zG9YWCNRON-8" target="3N-GQRmi18zG9YWCNRON-7">
          <mxGeometry relative="1" as="geometry">
            <mxPoint x="179" y="507.5" as="sourcePoint" />
            <mxPoint x="180" y="523.5" as="targetPoint" />
          </mxGeometry>
        </mxCell>
        <mxCell id="3N-GQRmi18zG9YWCNRON-12" style="edgeStyle=orthogonalEdgeStyle;rounded=0;orthogonalLoop=1;jettySize=auto;html=1;entryX=1;entryY=0.75;entryDx=0;entryDy=0;exitX=1;exitY=0.5;exitDx=0;exitDy=0;exitPerimeter=0;strokeColor=#0000FF;strokeWidth=2;" edge="1" parent="1" source="3N-GQRmi18zG9YWCNRON-3" target="3N-GQRmi18zG9YWCNRON-7">
          <mxGeometry relative="1" as="geometry">
            <mxPoint x="406" y="251" as="targetPoint" />
            <mxPoint x="342" y="279" as="sourcePoint" />
          </mxGeometry>
        </mxCell>
        <mxCell id="3N-GQRmi18zG9YWCNRON-13" value="Runner&lt;br&gt;Module" style="shape=component;align=left;spacingLeft=36;rounded=0;shadow=0;comic=0;labelBackgroundColor=none;strokeWidth=1;fontFamily=Verdana;fontSize=12;html=1;" vertex="1" parent="1">
          <mxGeometry x="646" y="63.5" width="100" height="60" as="geometry" />
        </mxCell>
        <mxCell id="3N-GQRmi18zG9YWCNRON-14" value="" style="ellipse;whiteSpace=wrap;html=1;rounded=0;shadow=0;comic=0;labelBackgroundColor=none;strokeWidth=1;fontFamily=Verdana;fontSize=12;align=center;" vertex="1" parent="1">
          <mxGeometry x="706" y="137.5" width="20" height="20" as="geometry" />
        </mxCell>
        <mxCell id="3N-GQRmi18zG9YWCNRON-15" style="edgeStyle=elbowEdgeStyle;rounded=0;html=1;labelBackgroundColor=none;startArrow=none;startFill=0;startSize=8;endArrow=none;endFill=0;endSize=16;fontFamily=Verdana;fontSize=12;" edge="1" parent="1" source="3N-GQRmi18zG9YWCNRON-14" target="3N-GQRmi18zG9YWCNRON-13">
          <mxGeometry relative="1" as="geometry" />
        </mxCell>
        <mxCell id="3N-GQRmi18zG9YWCNRON-17" value="Results&lt;br&gt;Module" style="shape=component;align=left;spacingLeft=36;rounded=0;shadow=0;comic=0;labelBackgroundColor=none;strokeWidth=1;fontFamily=Verdana;fontSize=12;html=1;" vertex="1" parent="1">
          <mxGeometry x="646" y="197.5" width="100" height="60" as="geometry" />
        </mxCell>
        <mxCell id="3N-GQRmi18zG9YWCNRON-18" value="" style="ellipse;whiteSpace=wrap;html=1;rounded=0;shadow=0;comic=0;labelBackgroundColor=none;strokeWidth=1;fontFamily=Verdana;fontSize=12;align=center;" vertex="1" parent="1">
          <mxGeometry x="706" y="167.5" width="20" height="20" as="geometry" />
        </mxCell>
        <mxCell id="3N-GQRmi18zG9YWCNRON-19" style="edgeStyle=elbowEdgeStyle;rounded=0;html=1;labelBackgroundColor=none;startArrow=none;startFill=0;startSize=8;endArrow=none;endFill=0;endSize=16;fontFamily=Verdana;fontSize=12;" edge="1" parent="1" source="3N-GQRmi18zG9YWCNRON-18" target="3N-GQRmi18zG9YWCNRON-17">
          <mxGeometry relative="1" as="geometry" />
        </mxCell>
        <mxCell id="3N-GQRmi18zG9YWCNRON-23" style="edgeStyle=orthogonalEdgeStyle;rounded=0;orthogonalLoop=1;jettySize=auto;html=1;exitX=0;exitY=0.3;exitDx=0;exitDy=0;entryX=1;entryY=0.5;entryDx=0;entryDy=0;entryPerimeter=0;strokeColor=#336600;strokeWidth=2;" edge="1" parent="1" source="39150e848f15840c-7" target="3N-GQRmi18zG9YWCNRON-2">
          <mxGeometry relative="1" as="geometry" />
        </mxCell>
        <mxCell id="3N-GQRmi18zG9YWCNRON-24" style="edgeStyle=orthogonalEdgeStyle;rounded=0;orthogonalLoop=1;jettySize=auto;html=1;exitX=0;exitY=0.7;exitDx=0;exitDy=0;entryX=0;entryY=0.5;entryDx=0;entryDy=0;entryPerimeter=0;strokeColor=#0000FF;strokeWidth=2;" edge="1" parent="1" source="39150e848f15840c-7" target="3N-GQRmi18zG9YWCNRON-3">
          <mxGeometry relative="1" as="geometry" />
        </mxCell>
        <mxCell id="3N-GQRmi18zG9YWCNRON-25" value="«interface»&lt;br&gt;&lt;b&gt;metrics&lt;/b&gt;" style="html=1;rounded=0;shadow=0;comic=0;labelBackgroundColor=none;strokeWidth=1;fontFamily=Verdana;fontSize=12;align=center;" vertex="1" parent="1">
          <mxGeometry x="976" y="423" width="80" height="40" as="geometry" />
        </mxCell>
        <mxCell id="3N-GQRmi18zG9YWCNRON-26" style="edgeStyle=orthogonalEdgeStyle;rounded=0;html=1;dashed=1;labelBackgroundColor=none;startArrow=none;startFill=0;startSize=8;endArrow=open;endFill=0;endSize=16;fontFamily=Verdana;fontSize=12;entryX=0.5;entryY=1;entryDx=0;entryDy=0;exitX=0.75;exitY=0;exitDx=0;exitDy=0;" edge="1" parent="1" source="39150e848f15840c-10" target="3N-GQRmi18zG9YWCNRON-25">
          <mxGeometry relative="1" as="geometry">
            <mxPoint x="976" y="530.5" as="sourcePoint" />
            <mxPoint x="916" y="472.5" as="targetPoint" />
            <Array as="points">
              <mxPoint x="991" y="489.5" />
              <mxPoint x="1016" y="489.5" />
            </Array>
          </mxGeometry>
        </mxCell>
        <mxCell id="3N-GQRmi18zG9YWCNRON-27" style="edgeStyle=orthogonalEdgeStyle;rounded=0;html=1;labelBackgroundColor=none;startArrow=none;startFill=0;endArrow=classicThin;endFill=1;fontFamily=Verdana;fontSize=12;entryX=0;entryY=0.7;entryDx=0;entryDy=0;exitX=1;exitY=0.5;exitDx=0;exitDy=0;strokeColor=#CC00CC;strokeWidth=2;" edge="1" parent="1" source="3N-GQRmi18zG9YWCNRON-17" target="39150e848f15840c-10">
          <mxGeometry relative="1" as="geometry">
            <mxPoint x="750" y="225" as="sourcePoint" />
            <mxPoint x="1034" y="309" as="targetPoint" />
            <Array as="points">
              <mxPoint x="810" y="227" />
              <mxPoint x="810" y="557" />
            </Array>
          </mxGeometry>
        </mxCell>
        <mxCell id="3N-GQRmi18zG9YWCNRON-28" value="&lt;b&gt;&lt;font style=&quot;font-size: 13px;&quot;&gt;Driver&lt;/font&gt;&lt;/b&gt;" style="verticalAlign=top;align=left;spacingTop=8;spacingLeft=2;spacingRight=12;shape=cube;size=10;direction=south;fontStyle=4;html=1;rounded=0;shadow=0;comic=0;labelBackgroundColor=none;strokeWidth=1;fontFamily=Verdana;fontSize=12" vertex="1" parent="1">
          <mxGeometry x="506" y="330.5" width="280" height="220" as="geometry" />
        </mxCell>
        <mxCell id="3N-GQRmi18zG9YWCNRON-29" style="edgeStyle=orthogonalEdgeStyle;rounded=0;orthogonalLoop=1;jettySize=auto;html=1;exitX=1;exitY=0.25;exitDx=0;exitDy=0;entryX=0;entryY=0.5;entryDx=0;entryDy=0;" edge="1" parent="1" source="3N-GQRmi18zG9YWCNRON-31" target="3N-GQRmi18zG9YWCNRON-33">
          <mxGeometry relative="1" as="geometry" />
        </mxCell>
        <mxCell id="3N-GQRmi18zG9YWCNRON-30" style="edgeStyle=orthogonalEdgeStyle;rounded=0;orthogonalLoop=1;jettySize=auto;html=1;exitX=1;exitY=0.75;exitDx=0;exitDy=0;entryX=0;entryY=0.5;entryDx=0;entryDy=0;" edge="1" parent="1" source="3N-GQRmi18zG9YWCNRON-31" target="3N-GQRmi18zG9YWCNRON-36">
          <mxGeometry relative="1" as="geometry" />
        </mxCell>
        <mxCell id="3N-GQRmi18zG9YWCNRON-31" value="Driver &lt;br&gt;Msg &lt;br&gt;Module" style="shape=component;align=left;spacingLeft=36;rounded=0;shadow=0;comic=0;labelBackgroundColor=none;strokeWidth=1;fontFamily=Verdana;fontSize=12;html=1;" vertex="1" parent="1">
          <mxGeometry x="516" y="418" width="100" height="60" as="geometry" />
        </mxCell>
        <mxCell id="3N-GQRmi18zG9YWCNRON-32" value="Runner&lt;br&gt;Module" style="shape=component;align=left;spacingLeft=36;rounded=0;shadow=0;comic=0;labelBackgroundColor=none;strokeWidth=1;fontFamily=Verdana;fontSize=12;html=1;" vertex="1" parent="1">
          <mxGeometry x="646" y="349" width="100" height="60" as="geometry" />
        </mxCell>
        <mxCell id="3N-GQRmi18zG9YWCNRON-33" value="" style="ellipse;whiteSpace=wrap;html=1;rounded=0;shadow=0;comic=0;labelBackgroundColor=none;strokeWidth=1;fontFamily=Verdana;fontSize=12;align=center;" vertex="1" parent="1">
          <mxGeometry x="706" y="423" width="20" height="20" as="geometry" />
        </mxCell>
        <mxCell id="3N-GQRmi18zG9YWCNRON-34" style="edgeStyle=elbowEdgeStyle;rounded=0;html=1;labelBackgroundColor=none;startArrow=none;startFill=0;startSize=8;endArrow=none;endFill=0;endSize=16;fontFamily=Verdana;fontSize=12;" edge="1" parent="1" source="3N-GQRmi18zG9YWCNRON-33" target="3N-GQRmi18zG9YWCNRON-32">
          <mxGeometry relative="1" as="geometry" />
        </mxCell>
        <mxCell id="3N-GQRmi18zG9YWCNRON-35" value="Results&lt;br&gt;Module" style="shape=component;align=left;spacingLeft=36;rounded=0;shadow=0;comic=0;labelBackgroundColor=none;strokeWidth=1;fontFamily=Verdana;fontSize=12;html=1;" vertex="1" parent="1">
          <mxGeometry x="646" y="483" width="100" height="60" as="geometry" />
        </mxCell>
        <mxCell id="3N-GQRmi18zG9YWCNRON-36" value="" style="ellipse;whiteSpace=wrap;html=1;rounded=0;shadow=0;comic=0;labelBackgroundColor=none;strokeWidth=1;fontFamily=Verdana;fontSize=12;align=center;" vertex="1" parent="1">
          <mxGeometry x="706" y="453" width="20" height="20" as="geometry" />
        </mxCell>
        <mxCell id="3N-GQRmi18zG9YWCNRON-37" style="edgeStyle=elbowEdgeStyle;rounded=0;html=1;labelBackgroundColor=none;startArrow=none;startFill=0;startSize=8;endArrow=none;endFill=0;endSize=16;fontFamily=Verdana;fontSize=12;" edge="1" parent="1" source="3N-GQRmi18zG9YWCNRON-36" target="3N-GQRmi18zG9YWCNRON-35">
          <mxGeometry relative="1" as="geometry" />
        </mxCell>
        <mxCell id="3N-GQRmi18zG9YWCNRON-38" value="&lt;b&gt;&lt;font style=&quot;font-size: 13px;&quot;&gt;Driver&lt;/font&gt;&lt;/b&gt;" style="verticalAlign=top;align=left;spacingTop=8;spacingLeft=2;spacingRight=12;shape=cube;size=10;direction=south;fontStyle=4;html=1;rounded=0;shadow=0;comic=0;labelBackgroundColor=none;strokeWidth=1;fontFamily=Verdana;fontSize=12" vertex="1" parent="1">
          <mxGeometry x="506" y="585" width="280" height="220" as="geometry" />
        </mxCell>
        <mxCell id="3N-GQRmi18zG9YWCNRON-39" style="edgeStyle=orthogonalEdgeStyle;rounded=0;orthogonalLoop=1;jettySize=auto;html=1;exitX=1;exitY=0.25;exitDx=0;exitDy=0;entryX=0;entryY=0.5;entryDx=0;entryDy=0;" edge="1" parent="1" source="3N-GQRmi18zG9YWCNRON-41" target="3N-GQRmi18zG9YWCNRON-43">
          <mxGeometry relative="1" as="geometry" />
        </mxCell>
        <mxCell id="3N-GQRmi18zG9YWCNRON-40" style="edgeStyle=orthogonalEdgeStyle;rounded=0;orthogonalLoop=1;jettySize=auto;html=1;exitX=1;exitY=0.75;exitDx=0;exitDy=0;entryX=0;entryY=0.5;entryDx=0;entryDy=0;" edge="1" parent="1" source="3N-GQRmi18zG9YWCNRON-41" target="3N-GQRmi18zG9YWCNRON-46">
          <mxGeometry relative="1" as="geometry" />
        </mxCell>
        <mxCell id="3N-GQRmi18zG9YWCNRON-41" value="Driver &lt;br&gt;Msg &lt;br&gt;Module" style="shape=component;align=left;spacingLeft=36;rounded=0;shadow=0;comic=0;labelBackgroundColor=none;strokeWidth=1;fontFamily=Verdana;fontSize=12;html=1;" vertex="1" parent="1">
          <mxGeometry x="516" y="672.5" width="100" height="60" as="geometry" />
        </mxCell>
        <mxCell id="3N-GQRmi18zG9YWCNRON-42" value="Runner&lt;br&gt;Module" style="shape=component;align=left;spacingLeft=36;rounded=0;shadow=0;comic=0;labelBackgroundColor=none;strokeWidth=1;fontFamily=Verdana;fontSize=12;html=1;" vertex="1" parent="1">
          <mxGeometry x="646" y="603.5" width="100" height="60" as="geometry" />
        </mxCell>
        <mxCell id="3N-GQRmi18zG9YWCNRON-43" value="" style="ellipse;whiteSpace=wrap;html=1;rounded=0;shadow=0;comic=0;labelBackgroundColor=none;strokeWidth=1;fontFamily=Verdana;fontSize=12;align=center;" vertex="1" parent="1">
          <mxGeometry x="706" y="677.5" width="20" height="20" as="geometry" />
        </mxCell>
        <mxCell id="3N-GQRmi18zG9YWCNRON-44" style="edgeStyle=elbowEdgeStyle;rounded=0;html=1;labelBackgroundColor=none;startArrow=none;startFill=0;startSize=8;endArrow=none;endFill=0;endSize=16;fontFamily=Verdana;fontSize=12;" edge="1" parent="1" source="3N-GQRmi18zG9YWCNRON-43" target="3N-GQRmi18zG9YWCNRON-42">
          <mxGeometry relative="1" as="geometry" />
        </mxCell>
        <mxCell id="3N-GQRmi18zG9YWCNRON-45" value="Results&lt;br&gt;Module" style="shape=component;align=left;spacingLeft=36;rounded=0;shadow=0;comic=0;labelBackgroundColor=none;strokeWidth=1;fontFamily=Verdana;fontSize=12;html=1;" vertex="1" parent="1">
          <mxGeometry x="646" y="737.5" width="100" height="60" as="geometry" />
        </mxCell>
        <mxCell id="3N-GQRmi18zG9YWCNRON-46" value="" style="ellipse;whiteSpace=wrap;html=1;rounded=0;shadow=0;comic=0;labelBackgroundColor=none;strokeWidth=1;fontFamily=Verdana;fontSize=12;align=center;" vertex="1" parent="1">
          <mxGeometry x="706" y="707.5" width="20" height="20" as="geometry" />
        </mxCell>
        <mxCell id="3N-GQRmi18zG9YWCNRON-47" style="edgeStyle=elbowEdgeStyle;rounded=0;html=1;labelBackgroundColor=none;startArrow=none;startFill=0;startSize=8;endArrow=none;endFill=0;endSize=16;fontFamily=Verdana;fontSize=12;" edge="1" parent="1" source="3N-GQRmi18zG9YWCNRON-46" target="3N-GQRmi18zG9YWCNRON-45">
          <mxGeometry relative="1" as="geometry" />
        </mxCell>
        <mxCell id="3N-GQRmi18zG9YWCNRON-48" style="edgeStyle=orthogonalEdgeStyle;rounded=0;html=1;labelBackgroundColor=none;startArrow=none;startFill=0;endArrow=classicThin;endFill=1;fontFamily=Verdana;fontSize=12;exitX=1;exitY=0.5;exitDx=0;exitDy=0;entryX=0;entryY=0.3;entryDx=0;entryDy=0;strokeColor=#CC0000;strokeWidth=2;" edge="1" parent="1" source="3N-GQRmi18zG9YWCNRON-32" target="39150e848f15840c-10">
          <mxGeometry relative="1" as="geometry">
            <mxPoint x="756" y="104" as="sourcePoint" />
            <mxPoint x="924" y="544" as="targetPoint" />
          </mxGeometry>
        </mxCell>
        <mxCell id="3N-GQRmi18zG9YWCNRON-49" style="edgeStyle=orthogonalEdgeStyle;rounded=0;html=1;labelBackgroundColor=none;startArrow=none;startFill=0;endArrow=classicThin;endFill=1;fontFamily=Verdana;fontSize=12;entryX=0;entryY=0.7;entryDx=0;entryDy=0;exitX=1;exitY=0.5;exitDx=0;exitDy=0;strokeColor=#CC00CC;strokeWidth=2;" edge="1" parent="1" source="3N-GQRmi18zG9YWCNRON-35" target="39150e848f15840c-10">
          <mxGeometry relative="1" as="geometry">
            <mxPoint x="756" y="238" as="sourcePoint" />
            <mxPoint x="924" y="568" as="targetPoint" />
            <Array as="points">
              <mxPoint x="810" y="513" />
              <mxPoint x="810" y="557" />
            </Array>
          </mxGeometry>
        </mxCell>
        <mxCell id="3N-GQRmi18zG9YWCNRON-50" style="edgeStyle=orthogonalEdgeStyle;rounded=0;html=1;labelBackgroundColor=none;startArrow=none;startFill=0;endArrow=classicThin;endFill=1;fontFamily=Verdana;fontSize=12;entryX=0;entryY=0.7;entryDx=0;entryDy=0;exitX=1;exitY=0.5;exitDx=0;exitDy=0;strokeColor=#CC00CC;strokeWidth=2;" edge="1" parent="1" source="3N-GQRmi18zG9YWCNRON-45" target="39150e848f15840c-10">
          <mxGeometry relative="1" as="geometry">
            <mxPoint x="756" y="523" as="sourcePoint" />
            <mxPoint x="924" y="568" as="targetPoint" />
            <Array as="points">
              <mxPoint x="810" y="767" />
              <mxPoint x="810" y="557" />
            </Array>
          </mxGeometry>
        </mxCell>
        <mxCell id="3N-GQRmi18zG9YWCNRON-52" style="edgeStyle=orthogonalEdgeStyle;rounded=0;html=1;labelBackgroundColor=none;startArrow=none;startFill=0;endArrow=classicThin;endFill=1;fontFamily=Verdana;fontSize=12;exitX=1;exitY=0.5;exitDx=0;exitDy=0;entryX=0;entryY=0.3;entryDx=0;entryDy=0;strokeColor=#CC0000;strokeWidth=2;" edge="1" parent="1" source="3N-GQRmi18zG9YWCNRON-42" target="39150e848f15840c-10">
          <mxGeometry relative="1" as="geometry">
            <mxPoint x="756" y="389" as="sourcePoint" />
            <mxPoint x="924" y="544" as="targetPoint" />
          </mxGeometry>
        </mxCell>
        <mxCell id="3N-GQRmi18zG9YWCNRON-53" style="edgeStyle=orthogonalEdgeStyle;rounded=0;orthogonalLoop=1;jettySize=auto;html=1;exitX=0;exitY=0.3;exitDx=0;exitDy=0;strokeColor=#336600;strokeWidth=2;" edge="1" parent="1" source="3N-GQRmi18zG9YWCNRON-31" target="3N-GQRmi18zG9YWCNRON-2">
          <mxGeometry relative="1" as="geometry">
            <mxPoint x="526" y="161" as="sourcePoint" />
            <mxPoint x="440" y="455" as="targetPoint" />
          </mxGeometry>
        </mxCell>
        <mxCell id="3N-GQRmi18zG9YWCNRON-54" style="edgeStyle=orthogonalEdgeStyle;rounded=0;orthogonalLoop=1;jettySize=auto;html=1;exitX=0;exitY=0.3;exitDx=0;exitDy=0;strokeColor=#336600;strokeWidth=2;entryX=1;entryY=0.5;entryDx=0;entryDy=0;entryPerimeter=0;" edge="1" parent="1" source="3N-GQRmi18zG9YWCNRON-41" target="3N-GQRmi18zG9YWCNRON-2">
          <mxGeometry relative="1" as="geometry">
            <mxPoint x="526" y="446" as="sourcePoint" />
            <mxPoint x="447" y="467" as="targetPoint" />
          </mxGeometry>
        </mxCell>
        <mxCell id="3N-GQRmi18zG9YWCNRON-55" style="edgeStyle=orthogonalEdgeStyle;rounded=0;orthogonalLoop=1;jettySize=auto;html=1;exitX=0;exitY=0.7;exitDx=0;exitDy=0;entryX=0;entryY=0.5;entryDx=0;entryDy=0;entryPerimeter=0;strokeColor=#0000FF;strokeWidth=2;" edge="1" parent="1" source="3N-GQRmi18zG9YWCNRON-31" target="3N-GQRmi18zG9YWCNRON-3">
          <mxGeometry relative="1" as="geometry">
            <mxPoint x="526" y="185" as="sourcePoint" />
            <mxPoint x="460" y="497" as="targetPoint" />
          </mxGeometry>
        </mxCell>
        <mxCell id="3N-GQRmi18zG9YWCNRON-56" style="edgeStyle=orthogonalEdgeStyle;rounded=0;orthogonalLoop=1;jettySize=auto;html=1;exitX=0;exitY=0.7;exitDx=0;exitDy=0;entryX=0;entryY=0.5;entryDx=0;entryDy=0;entryPerimeter=0;strokeColor=#0000FF;strokeWidth=2;" edge="1" parent="1" source="3N-GQRmi18zG9YWCNRON-41" target="3N-GQRmi18zG9YWCNRON-3">
          <mxGeometry relative="1" as="geometry">
            <mxPoint x="526" y="470" as="sourcePoint" />
            <mxPoint x="460" y="497" as="targetPoint" />
          </mxGeometry>
        </mxCell>
        <mxCell id="3N-GQRmi18zG9YWCNRON-57" value="Kafka: &lt;br&gt;Test-Config,&amp;nbsp;&lt;br&gt;Test-Trigger" style="text;html=1;strokeColor=none;fillColor=none;align=center;verticalAlign=middle;whiteSpace=wrap;rounded=0;" vertex="1" parent="1">
          <mxGeometry x="360" y="395" width="100" height="30" as="geometry" />
        </mxCell>
        <mxCell id="3N-GQRmi18zG9YWCNRON-58" value="Kafka: &lt;br&gt;Test-Results" style="text;html=1;strokeColor=none;fillColor=none;align=center;verticalAlign=middle;whiteSpace=wrap;rounded=0;" vertex="1" parent="1">
          <mxGeometry x="380" y="513" width="77" height="30" as="geometry" />
        </mxCell>
        <mxCell id="3N-GQRmi18zG9YWCNRON-59" value="http" style="text;html=1;strokeColor=none;fillColor=none;align=center;verticalAlign=middle;whiteSpace=wrap;rounded=0;" vertex="1" parent="1">
          <mxGeometry x="786" y="70" width="44" height="30" as="geometry" />
        </mxCell>
        <mxCell id="3N-GQRmi18zG9YWCNRON-60" value="http" style="text;html=1;strokeColor=none;fillColor=none;align=center;verticalAlign=middle;whiteSpace=wrap;rounded=0;" vertex="1" parent="1">
          <mxGeometry x="780" y="197.5" width="44" height="30" as="geometry" />
        </mxCell>
        <mxCell id="3N-GQRmi18zG9YWCNRON-61" value="http" style="text;html=1;strokeColor=none;fillColor=none;align=center;verticalAlign=middle;whiteSpace=wrap;rounded=0;" vertex="1" parent="1">
          <mxGeometry x="784" y="355.5" width="44" height="30" as="geometry" />
        </mxCell>
        <mxCell id="3N-GQRmi18zG9YWCNRON-62" value="http" style="text;html=1;strokeColor=none;fillColor=none;align=center;verticalAlign=middle;whiteSpace=wrap;rounded=0;" vertex="1" parent="1">
          <mxGeometry x="778" y="483" width="44" height="30" as="geometry" />
        </mxCell>
        <mxCell id="3N-GQRmi18zG9YWCNRON-63" value="http" style="text;html=1;strokeColor=none;fillColor=none;align=center;verticalAlign=middle;whiteSpace=wrap;rounded=0;" vertex="1" parent="1">
          <mxGeometry x="783" y="610.75" width="44" height="30" as="geometry" />
        </mxCell>
        <mxCell id="3N-GQRmi18zG9YWCNRON-64" value="http" style="text;html=1;strokeColor=none;fillColor=none;align=center;verticalAlign=middle;whiteSpace=wrap;rounded=0;" vertex="1" parent="1">
          <mxGeometry x="777" y="738.25" width="44" height="30" as="geometry" />
        </mxCell>
      </root>
    </mxGraphModel>
  </diagram>
</mxfile>
